<svg width="66" height="23" viewBox="0 0 66 23" fill="none" xmlns="http://www.w3.org/2000/svg">
<path d="M0.0400001 21.9999V0.819938H3.4L11.74 13.8099H10.03L18.34 0.819938H21.73V21.9999H17.02V8.76994L17.86 8.97994L12.43 17.4399H9.31L3.91 8.97994L4.72 8.76994V21.9999H0.0400001ZM28.972 21.9999V17.8599H34.222C35.502 17.8599 36.622 17.6099 37.582 17.1099C38.542 16.5899 39.282 15.8399 39.802 14.8599C40.322 13.8799 40.582 12.7199 40.582 11.3799C40.582 10.0399 40.312 8.88994 39.772 7.92994C39.252 6.96994 38.512 6.22994 37.552 5.70994C36.612 5.18994 35.502 4.92994 34.222 4.92994H28.822V0.819938H34.282C35.882 0.819938 37.352 1.07994 38.692 1.59994C40.052 2.09994 41.232 2.82994 42.232 3.78994C43.252 4.72994 44.032 5.84994 44.572 7.14994C45.132 8.42994 45.412 9.84994 45.412 11.4099C45.412 12.9499 45.132 14.3699 44.572 15.6699C44.032 16.9699 43.262 18.0899 42.262 19.0299C41.262 19.9699 40.082 20.6999 38.722 21.2199C37.382 21.7399 35.922 21.9999 34.342 21.9999H28.972ZM25.792 21.9999V0.819938H30.502V21.9999H25.792ZM47.6591 9.33994L49.8491 5.22994L51.1991 4.86994C51.0591 5.14994 50.8891 5.38994 50.6891 5.58994C50.4891 5.78994 50.2591 5.88994 49.9991 5.88994C49.4191 5.88994 48.8891 5.64994 48.4091 5.16994C47.9291 4.68994 47.6891 4.07994 47.6891 3.33994C47.6891 2.55994 47.9491 1.89994 48.4691 1.35994C49.0091 0.799938 49.6691 0.519938 50.4491 0.519938C51.1891 0.519938 51.8291 0.799938 52.3691 1.35994C52.9291 1.89994 53.2091 2.55994 53.2091 3.33994C53.2091 3.65994 53.1491 4.03994 53.0291 4.47994C52.9091 4.89994 52.6691 5.43994 52.3091 6.09994L49.8791 10.5399L47.6591 9.33994ZM59.5101 22.3599C58.6501 22.3599 57.8001 22.2499 56.9601 22.0299C56.1401 21.8099 55.3701 21.4999 54.6501 21.0999C53.9501 20.6799 53.3501 20.1999 52.8501 19.6599L55.4601 17.0199C55.9401 17.5399 56.5101 17.9499 57.1701 18.2499C57.8301 18.5299 58.5501 18.6699 59.3301 18.6699C59.8701 18.6699 60.2801 18.5899 60.5601 18.4299C60.8601 18.2699 61.0101 18.0499 61.0101 17.7699C61.0101 17.4099 60.8301 17.1399 60.4701 16.9599C60.1301 16.7599 59.6901 16.5899 59.1501 16.4499C58.6101 16.2899 58.0401 16.1199 57.4401 15.9399C56.8401 15.7599 56.2701 15.5099 55.7301 15.1899C55.1901 14.8699 54.7501 14.4299 54.4101 13.8699C54.0701 13.2899 53.9001 12.5599 53.9001 11.6799C53.9001 10.7399 54.1401 9.92994 54.6201 9.24994C55.1001 8.54994 55.7801 7.99994 56.6601 7.59994C57.5401 7.19994 58.5701 6.99994 59.7501 6.99994C60.9901 6.99994 62.1301 7.21994 63.1701 7.65994C64.2301 8.07994 65.0901 8.70994 65.7501 9.54994L63.1401 12.1899C62.6801 11.6499 62.1601 11.2699 61.5801 11.0499C61.0201 10.8299 60.4701 10.7199 59.9301 10.7199C59.4101 10.7199 59.0201 10.7999 58.7601 10.9599C58.5001 11.0999 58.3701 11.3099 58.3701 11.5899C58.3701 11.8899 58.5401 12.1299 58.8801 12.3099C59.2201 12.4899 59.6601 12.6499 60.2001 12.7899C60.7401 12.9299 61.3101 13.0999 61.9101 13.2999C62.5101 13.4999 63.0801 13.7699 63.6201 14.1099C64.1601 14.4499 64.6001 14.9099 64.9401 15.4899C65.2801 16.0499 65.4501 16.7899 65.4501 17.7099C65.4501 19.1299 64.9101 20.2599 63.8301 21.0999C62.7701 21.9399 61.3301 22.3599 59.5101 22.3599Z" fill="black"/>
</svg>
